<svg id="Layer_1" data-name="Layer 1" xmlns="http://www.w3.org/2000/svg" viewBox="0 0 512 512"><defs><style>.cls-1{fill:#319694;}.cls-2{fill:#f4f6f9;}</style></defs><path class="cls-1" d="M512,256c0,141.39-114.61,256-256,256S0,397.4,0,256,114.61,0,256,0,512,114.61,512,256Z" transform="translate(0)"/><path class="cls-2" d="M404.06,108.48a6.72,6.72,0,0,0-.34-1.73c-.08-.24-.14-.48-.24-.71a6.51,6.51,0,0,0-3.52-3.52c-.24-.1-.47-.17-.72-.25a7.09,7.09,0,0,0-1.71-.33,6.69,6.69,0,0,0-.78,0,7.08,7.08,0,0,0-2,.38c-.15,0-.31.06-.45.12a.38.38,0,0,0-.1,0L68.17,244.21A7.08,7.08,0,0,0,67.68,257l118.57,62.78L249,438.32a7.08,7.08,0,0,0,6.26,3.78h.28a7.06,7.06,0,0,0,6.22-4.26L403.56,111.76s0-.06,0-.09.07-.3.13-.45a7.15,7.15,0,0,0,.38-2A6.44,6.44,0,0,0,404.06,108.48ZM87.33,251.34l278.32-121L190.19,305.79ZM254.67,418.67,200.21,315.81,375.68,140.34Z" transform="translate(0)"/></svg>